<svg xmlns="http://www.w3.org/2000/svg" xmlns:xlink="http://www.w3.org/1999/xlink" width="16" height="44" viewBox="0 0 16 44"><defs><path id="us1aa" d="M728 5026.58c0 13.5-4.97 22.66-5.18 23.05l-.2.37h-5.24l-.2-.37c-.21-.39-5.18-9.54-5.18-23.05 0-13.37 5.68-20.58 8-20.58 2.32 0 8 7.21 8 20.58zm-4.73 18.38c-.14-.59-.82-2.65-3.64-4.29a16.03 16.03 0 0 1-5.37-4.93 48.99 48.99 0 0 0 4 12.84h1.01v-4.97h1.46v4.97h1c.3-.58.88-1.83 1.54-3.62zm1.84-6.15c-.01-.04-.8-2.62-5.47-5.23-3.28-1.82-5.12-3.98-6.16-5.86.02.88.05 1.74.11 2.58.13.97 1.04 5.82 6.78 9.15a9.63 9.63 0 0 1 3.6 3.47c.4-1.2.78-2.59 1.14-4.1zm.46-2.13c.57-2.97.98-6.37.98-10.1 0-11.18-3.96-17.07-5.82-18.7v22.25h-1.46v-22.25c-1.65 1.45-4.96 5.93-5.68 15.15 0 0-.09 5.49 6.77 9.3a15.61 15.61 0 0 1 5.21 4.35z"/></defs><g><g transform="translate(-712 -5006)"><use fill="#5da8ef" xlink:href="#us1aa"/></g></g></svg>